<?xml version="1.0" encoding="UTF-8"?>
<svg id="katman_2" xmlns="http://www.w3.org/2000/svg" viewBox="0 0 529.39 111.8">
  <defs>
    <style>
      .cls-1 {
        fill: #0d8cff;
      }

      .cls-2 {
        fill: #1c1c1c;
      }
    </style>
  </defs>
  <g id="katman_1">
    <path class="cls-1" d="M31,0h29.1l30.7,71.4h-25.5c-2.58-6.97-9.23-11.6-16.67-11.6h-6.46c-7.43,0-14.09,4.63-16.67,11.6H0L31,0ZM45.5,18h-.2l-9.9,27h20l-9.9-27Z"/>
    <polygon class="cls-1" points="104.99 48.9 73.29 0 100.89 0 116.89 30.3 132.89 0 160.49 0 128.79 48.9 128.79 71.4 104.99 71.4 104.99 48.9"/>
    <path class="cls-1" d="M173.98,0h29.1l30.7,71.4h-25.5c-2.58-6.97-9.23-11.6-16.67-11.6h-6.46c-7.44,0-14.09,4.63-16.67,11.6h-25.5L173.98,0ZM188.48,18h-.2l-9.9,27h20l-9.9-27Z"/>
    <path class="cls-1" d="M18.71,80.19h6.46v21.45c0,4.31-1.81,10.16-11.45,10.16-11.76,0-11.88-7.41-11.88-11.93h6.46c0,3.19.04,7.1,5.34,7.1s5.08-4.05,5.08-7.15v-19.64Z"/>
    <path class="cls-1" d="M28.14,95.57c0-8.66,5.08-16.23,18.09-16.23s18.09,7.58,18.09,16.23-5.08,16.24-18.09,16.24-18.09-7.58-18.09-16.24M57.6,95.57c0-6.72-4.13-11.41-11.37-11.41s-11.37,4.69-11.37,11.41,4.13,11.41,11.37,11.41,11.37-4.69,11.37-11.41"/>
    <path class="cls-1" d="M67.02,80.19h6.46v17.35c0,4.26.13,9.43,8.57,9.43s8.61-5.21,8.61-9.43v-17.35h6.46v17.53c0,5.08-.17,14.08-15.07,14.08s-15.03-8.96-15.03-14.08v-17.53Z"/>
    <path class="cls-1" d="M101.56,80.19h19.47c7.84,0,10.38,3.53,10.38,8.35,0,4.01-2.15,6.5-5.08,7.41v.09c3.62.78,4.48,3.92,4.48,8.31,0,1.51.04,4.87,1.29,6.59h-6.98c-.47-.86-.78-2.41-.78-4.65,0-4.35-.65-7.49-5.34-7.49h-10.98v12.14h-6.46v-30.75ZM119.17,93.97c3.62,0,5.51-1.08,5.51-4.52,0-3.23-2.07-4.43-5.51-4.43h-11.15v8.96h11.15Z"/>
    <polygon class="cls-1" points="135.06 80.19 142.46 80.19 160.77 103.27 160.85 103.27 160.85 80.19 167.05 80.19 167.05 110.94 159.78 110.94 141.34 87.86 141.26 87.86 141.26 110.94 135.06 110.94 135.06 80.19"/>
    <polygon class="cls-1" points="171.74 80.19 198.44 80.19 198.44 85.02 178.2 85.02 178.2 92.77 197.63 92.77 197.63 97.59 178.2 97.59 178.2 106.12 198.79 106.12 198.79 110.94 171.74 110.94 171.74 80.19"/>
    <polygon class="cls-1" points="212.05 99.23 198.61 80.19 206.49 80.19 215.28 93.89 224.06 80.19 231.94 80.19 218.51 99.23 218.51 110.94 212.05 110.94 212.05 99.23"/>
    <polygon class="cls-2" points="292.53 11.54 298.42 11.54 306.59 31.59 314.58 11.54 320.26 11.54 309.25 36.57 303.68 36.57 292.53 11.54"/>
    <rect class="cls-2" x="322.26" y="11.54" width="5.26" height="25.03"/>
    <path class="cls-2" d="M342.34,10.84c3.86,0,11.53.7,12.23,7.96h-5.68c-.18-1.96-1.93-4.03-6.31-4.03-3.51,0-5.82,1.05-5.82,3.43,0,5.92,18.65.21,18.65,10.94,0,6.45-6.7,8.13-12.02,8.13-9.01,0-12.58-3.54-12.69-8.8h5.68c.14,3.33,2.84,4.87,7.19,4.87,3.22,0,6.17-.98,6.17-3.68,0-6.21-18.44-.81-18.44-11.08,0-5.61,4.94-7.75,11.04-7.75"/>
    <path class="cls-2" d="M366.88,11.54h6.24l11.15,25.03h-5.85l-2.63-6.2h-11.78l-2.59,6.2h-5.68l11.15-25.03ZM374.21,26.44l-4.28-10.55-4.35,10.55h8.62Z"/>
    <polygon class="cls-2" points="295.65 42.86 317.38 42.86 317.38 46.79 300.91 46.79 300.91 53.1 316.72 53.1 316.72 57.02 300.91 57.02 300.91 63.96 317.67 63.96 317.67 67.89 295.65 67.89 295.65 42.86"/>
    <path class="cls-2" d="M321.63,42.86h13.5c9.82,0,12.23,5.61,12.23,12.76,0,5.36-2.45,12.27-10.97,12.27h-14.76v-25.03ZM326.88,63.96h7.4c3.79,0,7.82-1.23,7.82-8.55,0-8.13-5.15-8.62-8.1-8.62h-7.12v17.18Z"/>
    <path class="cls-2" d="M351.28,42.86h5.26v14.13c0,3.47.1,7.68,6.98,7.68s7.01-4.24,7.01-7.68v-14.13h5.26v14.27c0,4.14-.14,11.46-12.27,11.46s-12.23-7.29-12.23-11.46v-14.27Z"/>
    <path class="cls-2" d="M401.27,52.11c-.56-3.75-3.61-6.03-8.06-6.03-4.87,0-8.45,3.23-8.45,9.74,0,5.22,3.61,8.83,8.8,8.83,5.47,0,7.26-3.68,7.71-6.34h5.68c-.74,4.94-4.03,10.27-14.3,10.27-9.08,0-13.36-6.17-13.36-13.22s4.17-13.21,13.99-13.21c8.62,0,13.11,4.52,13.67,9.95h-5.68Z"/>
    <path class="cls-2" d="M419.46,42.86h6.24l11.15,25.03h-5.85l-2.63-6.2h-11.78l-2.59,6.2h-5.68l11.15-25.03ZM426.79,57.76l-4.28-10.55-4.35,10.55h8.62Z"/>
    <polygon class="cls-2" points="444 46.79 434.61 46.79 434.61 42.86 458.65 42.86 458.65 46.79 449.26 46.79 449.26 67.89 444 67.89 444 46.79"/>
    <rect class="cls-2" x="461.21" y="42.86" width="5.26" height="25.03"/>
    <path class="cls-2" d="M470.18,55.37c0-7.05,4.14-13.21,14.72-13.21s14.72,6.17,14.72,13.21-4.14,13.22-14.72,13.22-14.72-6.17-14.72-13.22M494.16,55.37c0-5.47-3.37-9.29-9.25-9.29s-9.25,3.82-9.25,9.29,3.36,9.29,9.25,9.29,9.25-3.82,9.25-9.29"/>
    <polygon class="cls-2" points="503.35 42.86 509.37 42.86 524.27 61.65 524.34 61.65 524.34 42.86 529.39 42.86 529.39 67.89 523.47 67.89 508.46 49.1 508.39 49.1 508.39 67.89 503.35 67.89 503.35 42.86"/>
    <path class="cls-2" d="M295.65,74.59h16.55c5.71,0,7.19,3.05,7.19,6.24,0,3.58-2.1,4.56-3.4,5.22,1.93.56,4.56,2.03,4.56,6.2,0,2.8-1.79,7.36-8.52,7.36h-16.37v-25.03ZM300.91,84.75h9.81c1.47,0,3.4-.39,3.4-3.19,0-2.1-1.23-3.05-4.31-3.05h-8.9v6.24ZM300.91,95.69h9.43c2.38,0,4.73-.46,4.73-3.68,0-2.35-1.58-3.54-3.96-3.54h-10.2v7.22Z"/>
    <path class="cls-2" d="M324.64,74.59h5.26v14.13c0,3.47.1,7.68,6.98,7.68s7.01-4.24,7.01-7.68v-14.13h5.26v14.27c0,4.14-.14,11.46-12.27,11.46s-12.23-7.29-12.23-11.46v-14.27Z"/>
    <path class="cls-2" d="M363.76,73.89c3.86,0,11.53.7,12.23,7.96h-5.68c-.18-1.96-1.93-4.03-6.31-4.03-3.51,0-5.82,1.05-5.82,3.43,0,5.92,18.65.21,18.65,10.94,0,6.45-6.7,8.13-12.02,8.13-9.01,0-12.58-3.54-12.69-8.8h5.68c.14,3.33,2.84,4.87,7.19,4.87,3.22,0,6.17-.98,6.17-3.68,0-6.21-18.44-.81-18.44-11.08,0-5.61,4.94-7.75,11.04-7.75"/>
    <rect class="cls-2" x="380.03" y="74.59" width="5.26" height="25.03"/>
    <polygon class="cls-2" points="390.4 74.59 396.43 74.59 411.33 93.38 411.4 93.38 411.4 74.59 416.45 74.59 416.45 99.61 410.52 99.61 395.52 80.83 395.45 80.83 395.45 99.61 390.4 99.61 390.4 74.59"/>
    <polygon class="cls-2" points="421.57 74.59 443.3 74.59 443.3 78.51 426.82 78.51 426.82 84.82 442.63 84.82 442.63 88.75 426.82 88.75 426.82 95.69 443.58 95.69 443.58 99.61 421.57 99.61 421.57 74.59"/>
    <path class="cls-2" d="M457.25,73.89c3.86,0,11.53.7,12.23,7.96h-5.68c-.18-1.96-1.93-4.03-6.31-4.03-3.51,0-5.82,1.05-5.82,3.43,0,5.92,18.65.21,18.65,10.94,0,6.45-6.7,8.13-12.02,8.13-9.01,0-12.58-3.54-12.69-8.8h5.68c.14,3.33,2.84,4.87,7.19,4.87,3.22,0,6.17-.98,6.17-3.68,0-6.21-18.44-.81-18.44-11.08,0-5.61,4.94-7.75,11.04-7.75"/>
    <path class="cls-2" d="M483.22,73.89c3.86,0,11.53.7,12.23,7.96h-5.68c-.18-1.96-1.93-4.03-6.31-4.03-3.51,0-5.82,1.05-5.82,3.43,0,5.92,18.65.21,18.65,10.94,0,6.45-6.7,8.13-12.02,8.13-9.01,0-12.58-3.54-12.69-8.8h5.68c.14,3.33,2.84,4.87,7.19,4.87,3.22,0,6.17-.98,6.17-3.68,0-6.21-18.44-.81-18.44-11.08,0-5.61,4.94-7.75,11.04-7.75"/>
    <rect class="cls-2" x="267.13" y="14.93" width="1.98" height="81.73"/>
  </g>
</svg>