<?xml version="1.0" encoding="UTF-8"?>
<svg id="katman_2" xmlns="http://www.w3.org/2000/svg" viewBox="0 0 145.69 107.94">
  <defs>
    <style>
      .cls-1, .cls-2 {
        fill: #fff;
      }

      .cls-2 {
        fill-rule: evenodd;
      }
    </style>
  </defs>
  <g id="katman_1">
    <g>
      <g>
        <g>
          <path class="cls-1" d="M35.39,53.16h12.69l13.39,31.14h-11.12c-1.13-3.04-4.03-5.06-7.27-5.06h-2.82c-3.24,0-6.14,2.02-7.27,5.06h0s-11.12,0-11.12,0l13.52-31.14ZM41.71,61.01h-.09l-4.32,11.77h8.72l-4.32-11.77Z"/>
          <path class="cls-1" d="M67.66,74.49l-13.82-21.32h12.04l6.98,13.21,6.98-13.21h12.04l-13.82,21.32v9.81h-10.38v-9.81Z"/>
          <path class="cls-1" d="M97.74,53.16h12.69l13.39,31.14h-11.12c-1.13-3.04-4.03-5.06-7.27-5.06h-2.82c-3.24,0-6.14,2.02-7.27,5.06h0s-11.12,0-11.12,0l13.52-31.14ZM104.07,61.01h-.09l-4.32,11.77h8.72l-4.32-11.77Z"/>
        </g>
        <g>
          <path class="cls-1" d="M10.69,87.93h4.09v13.58c0,2.73-1.15,6.43-7.25,6.43-7.44,0-7.52-4.69-7.52-7.55h4.09c0,2.02.03,4.5,3.38,4.5s3.22-2.56,3.22-4.53v-12.43Z"/>
          <path class="cls-1" d="M16.66,97.66c0-5.48,3.22-10.28,11.45-10.28s11.45,4.8,11.45,10.28-3.22,10.28-11.45,10.28-11.45-4.8-11.45-10.28ZM35.31,97.66c0-4.25-2.62-7.23-7.2-7.23s-7.2,2.97-7.2,7.23,2.62,7.23,7.2,7.23,7.2-2.97,7.2-7.23Z"/>
          <path class="cls-1" d="M41.28,87.93h4.09v10.99c0,2.7.08,5.97,5.43,5.97s5.45-3.3,5.45-5.97v-10.99h4.09v11.1c0,3.22-.11,8.92-9.54,8.92s-9.52-5.67-9.52-8.92v-11.1Z"/>
          <path class="cls-1" d="M63.14,87.93h12.32c4.96,0,6.57,2.24,6.57,5.29,0,2.54-1.36,4.12-3.22,4.69v.05c2.29.49,2.84,2.48,2.84,5.26,0,.95.03,3.08.82,4.17h-4.42c-.3-.55-.49-1.53-.49-2.94,0-2.75-.41-4.74-3.38-4.74h-6.95v7.69h-4.09v-19.47ZM74.29,96.65c2.29,0,3.49-.68,3.49-2.86,0-2.04-1.31-2.81-3.49-2.81h-7.06v5.67h7.06Z"/>
          <path class="cls-1" d="M84.35,87.93h4.69l11.59,14.61h.05v-14.61h3.93v19.47h-4.61l-11.67-14.61h-.05v14.61h-3.93v-19.47Z"/>
          <path class="cls-1" d="M107.58,87.93h16.9v3.05h-12.81v4.91h12.3v3.05h-12.3v5.4h13.03v3.05h-17.12v-19.47Z"/>
          <path class="cls-1" d="M133.1,99.98l-8.51-12.05h4.99l5.56,8.67,5.56-8.67h4.99l-8.51,12.05v7.42h-4.09v-7.42Z"/>
        </g>
      </g>
      <g>
        <g>
          <g>
            <path class="cls-1" d="M97.84,44.34c-6.23-2.64-12.77-4.26-19.49-4.85-.14-.01-.29-.03-.43-.04-.24-.02-.49-.04-.73-.05,0,0,0,0-.02,0-1.51-.1-3.03-.16-4.56-.16-2.76,0-5.49.17-8.19.51-.03,0-.06,0-.09.01-5.83.74-11.5,2.27-16.95,4.57-.83.35-1.65.72-2.46,1.1-.32.15-.64.3-.95.46-2.81,1.38-5.51,2.96-8.08,4.74h1.85c2.08-1.36,4.24-2.6,6.47-3.72.3-.15.61-.3.91-.45,5.96-2.86,12.44-4.82,19.25-5.7.99-.13,2-.23,3-.32h0c1.72-.14,3.47-.21,5.23-.21,1.24,0,2.48.04,3.7.11.02,0,.05,0,.07,0,.39.02.78.05,1.17.08,0,0,.01,0,.02,0,10.97.85,21.18,4.48,29.91,10.2h1.85c-3.59-2.48-7.43-4.58-11.49-6.3Z"/>
            <path class="cls-1" d="M71.82,44.12c-.37,1.29-1.33,3-3.78,3.87-1.67.59-3.62.64-5.69.69-3.3.08-6.72.16-9.68,2.36-.5.37-1.19.56-2.01.56-.35,0-.72-.03-1.11-.1-1.61-.28-3.49-1.15-3.95-1.83-.69-1.03-1.13-1.95-1.39-2.75-.12-.36-.2-.7-.25-1.02.32-.16.63-.31.95-.46.03.3.09.65.21,1.03.22.74.62,1.62,1.31,2.64.19.29,1.64,1.11,3.29,1.4.73.13,1.73.18,2.35-.28,3.21-2.38,6.95-2.47,10.25-2.55,1.99-.05,3.86-.09,5.38-.63,1.65-.58,2.71-1.66,3.15-3.2.11-.38.06-.78-.14-1.12-.2-.34-.52-.58-.9-.67l-5.45-1.29-.27-.06.22-.94s.06,0,.09-.01l2.97.7h0l2.67.63c.65.15,1.2.56,1.53,1.14.34.58.42,1.25.23,1.9Z"/>
          </g>
          <path class="cls-1" d="M101.4,50.39h-1.78c-2.11-1.38-5.82-3.52-9.06-3.92-1.86-.23-3.6.12-5.28.46-2.75.55-5.35,1.07-7.84-1.13-1.23-1.09-1.81-2.26-1.74-3.48.05-.75.34-1.41.69-1.95.06-.09.11-.17.17-.25.21-.28.42-.51.62-.71,0,0,0,0,.02,0,.24.02.49.04.73.05.14.01.29.02.43.04l.09.13h0s-.3.22-.65.57c-.07.07-.15.16-.22.24-.42.49-.84,1.16-.89,1.94-.05.9.42,1.8,1.4,2.67,2.12,1.88,4.37,1.42,6.98.9,1.76-.35,3.58-.72,5.6-.47,4.27.53,9.13,3.77,10.72,4.91Z"/>
        </g>
        <g>
          <g>
            <g>
              <g>
                <path class="cls-1" d="M59.1,34.28l-3.06-3.77-.22-.27-1.29.38-3.2.94h0s-.04.35-.04.35l-.54,4.82-.04.34,2.66-.78-.02-.33-.17-3.62,1.49-.43,1.81,3.14.16.29,2.67-.78-.22-.27ZM56.8,34.95l-1.85-3.21c-.07-.13-.23-.19-.37-.15l-1.49.43c-.14.04-.24.17-.23.32l.17,3.7-.56.16-1.4.41h0s.54-4.82.54-4.82l4.08-1.2,3.06,3.77-1.96.57Z"/>
                <path class="cls-1" d="M59.62,34.46s-.03-.08-.06-.11l-.13-.16-3.06-3.77-.22-.27-.08-.1c-.08-.1-.21-.14-.33-.11l-4.51,1.32c-.12.04-.21.14-.22.27v.13s-.05.34-.05.34h0s-.54,4.82-.54,4.82l-.02.21s0,.08,0,.13c.02.06.05.11.1.15.08.07.19.09.29.06l2.67-.78c.14-.04.24-.17.23-.32v-.08s-.02-.33-.02-.33l-.16-3.3,1-.29,1.65,2.86.16.29.04.07c.07.13.23.18.36.14l2.67-.78c.1-.03.18-.11.21-.21.02-.06.02-.12,0-.18ZM54.59,31.59l-1.49.43c-.14.04-.24.17-.23.32l.17,3.7-.56.16-1.4.41h0s.54-4.82.54-4.82l4.08-1.2,3.06,3.77-1.96.57-1.85-3.21c-.07-.13-.23-.19-.37-.15Z"/>
              </g>
              <g>
                <path class="cls-1" d="M49.54,12.87l-.38-1.3c-.07-.23-.31-.36-.53-.29l-.42.12-.61.18-.42.12c-.23.07-.36.31-.3.54l.38,1.31c.04.12.12.21.22.26.09.05.21.06.32.03l1.46-.43c.11-.03.2-.1.25-.2.06-.1.08-.22.04-.34ZM47.7,13.53c-.06.02-.12-.02-.14-.08l-.38-1.3c-.02-.06.02-.12.08-.14l1.46-.43c.06-.02.12.02.14.08l.38,1.3c.02.06-.02.12-.08.14l-1.46.43Z"/>
                <path class="cls-1" d="M49.84,12.78l-.38-1.3c-.12-.4-.53-.63-.93-.51l-.42.12-.61.18-.42.12c-.4.12-.63.53-.51.93l.38,1.31c.08.29.33.49.6.53.11.01.22,0,.33-.02l.3-.09.85-.25.31-.09c.11-.03.2-.09.29-.16.21-.19.3-.49.22-.77ZM47.56,13.45l-.38-1.3c-.02-.06.02-.12.08-.14l1.46-.43c.06-.02.12.02.14.08l.38,1.3c.02.06-.02.12-.08.14l-1.46.43c-.06.02-.12-.02-.14-.08Z"/>
              </g>
              <g>
                <path class="cls-1" d="M50.97,29.8c-.02.24-.05.35-.05.35l4.49-1.32s-.08-.07-.23-.27c-.65-.86-2.69-4.15-5.85-14.85l-.09-.31-1.46.43.09.31c3.11,10.71,3.17,14.58,3.09,15.66h0ZM48.18,14.05l.85-.25c3.04,10.32,5.06,13.8,5.83,14.86l-3.57,1.04c.08-1.3-.1-5.32-3.11-15.65Z"/>
                <path class="cls-1" d="M55.72,28.74h0c-.02-.06-.05-.11-.09-.15,0,0-.04-.04-.11-.12-.48-.59-2.55-3.59-5.89-14.91l-.07-.24s-.03-.08-.06-.11c-.08-.1-.21-.15-.34-.11l-1.46.43c-.13.04-.22.15-.23.28,0,.04,0,.08,0,.12l.07.24c3.28,11.25,3.17,14.96,3.09,15.73-.01.1-.02.16-.02.16-.02.06-.02.12,0,.18.02.05.04.1.09.14.08.08.2.11.31.08l4.49-1.32c.11-.03.19-.12.22-.23.02-.05.01-.11,0-.16ZM49.03,13.8c3.04,10.32,5.06,13.8,5.83,14.86l-3.57,1.04c.08-1.3-.1-5.32-3.11-15.65l.85-.25Z"/>
              </g>
              <g>
                <path class="cls-1" d="M55.94,28.68l-.23.07-.31.09-4.49,1.32-.31.09-.23.07.41,1.41.2-.06.33-.1,3.2-.94,1.29-.38.33-.1.2-.06-.41-1.41ZM51.23,31.25l-.22.06-.23-.8.23-.07,4.49-1.32.23-.07.23.8-.22.06-4.51,1.32Z"/>
                <path class="cls-1" d="M56.66,29.99l-.41-1.41c-.05-.17-.23-.27-.4-.22l-.34.1-.33.1-.32.1-3.57,1.04-.32.09h0s-.33.1-.33.1l-.34.1c-.17.05-.26.22-.21.4l.41,1.41c.05.17.23.27.39.22l.07-.02.33-.1.33-.1,4.08-1.2.33-.1.33-.1.07-.02c.17-.05.27-.23.22-.4ZM51.02,31.32l-.23-.8.23-.07,4.49-1.32.23-.07.23.8-.22.06-4.51,1.32-.22.06Z"/>
              </g>
              <g>
                <path class="cls-1" d="M60.33,35.45l-.32-1.1-.39.11-.3.09-2.67.78-.32.09-2.64.77-.32.09-2.66.78-.31.09-.39.11.32,1.1h0l.09.31,9.99-2.92-.09-.31ZM50.65,38.28l-.23-.8.39-.11,2.67-.78,3.27-.96,2.67-.78.38-.11.23.8-9.38,2.75Z"/>
                <path class="cls-1" d="M56.37,35.49l-.04-.07-.16-.29-2.49.73v.33s.02.08.02.08c0,.15-.09.28-.23.32l3.27-.96c-.14.04-.29-.02-.36-.14ZM56.37,35.49l-.04-.07-.16-.29-2.49.73v.33s.02.08.02.08c0,.15-.09.28-.23.32l3.27-.96c-.14.04-.29-.02-.36-.14ZM56.37,35.49l-.04-.07-.16-.29-2.49.73v.33s.02.08.02.08c0,.15-.09.28-.23.32l3.27-.96c-.14.04-.29-.02-.36-.14ZM60.73,35.66l-.02-.07h0s-.39-1.34-.39-1.34c-.05-.17-.23-.27-.4-.22l-.49.14-.33.1-.33.1-1.96.57-.32.09-.31.09-2.49.73-.32.09-.32.09-.56.16-1.4.41-.33.1-.33.1-.49.14c-.17.05-.27.23-.22.4l.39,1.34h0s.02.07.02.07c.04.12.14.2.25.22.05,0,.1,0,.15,0l.19-.05,3.91-1.15,5.7-1.67.19-.05s.09-.04.13-.08c.08-.08.13-.2.09-.32ZM50.65,38.28l-.23-.8.39-.11,2.67-.78,3.27-.96,2.67-.78.38-.11.23.8-9.38,2.75ZM56.37,35.49l-.04-.07-.16-.29-2.49.73v.33s.02.08.02.08c0,.15-.09.28-.23.32l3.27-.96c-.14.04-.29-.02-.36-.14ZM56.37,35.49l-.04-.07-.16-.29-2.49.73v.33s.02.08.02.08c0,.15-.09.28-.23.32l3.27-.96c-.14.04-.29-.02-.36-.14Z"/>
              </g>
              <g>
                <path class="cls-1" d="M59.6,38.61s-.1-.05-.15-.08c-1.05-.53-2.29-.59-3.68-.18-1.47.43-2.51,1.2-3.09,2.29-.01.03-.03.05-.04.07-.02.05-.05.1-.07.15.14-.05.28-.09.43-.14.04-.07.07-.13.12-.2.49-.76,1.33-1.46,2.75-1.87,1.29-.38,2.3-.3,3.1,0,.16.06.31.13.46.21.16-.03.31-.06.47-.09-.09-.06-.18-.11-.27-.17ZM59.6,38.61s-.1-.05-.15-.08c-1.05-.53-2.29-.59-3.68-.18-1.47.43-2.51,1.2-3.09,2.29-.01.03-.03.05-.04.07-.02.05-.05.1-.07.15.14-.05.28-.09.43-.14.04-.07.07-.13.12-.2.49-.76,1.33-1.46,2.75-1.87,1.29-.38,2.3-.3,3.1,0,.16.06.31.13.46.21.16-.03.31-.06.47-.09-.09-.06-.18-.11-.27-.17ZM59.6,38.61s-.1-.05-.15-.08c-1.05-.53-2.29-.59-3.68-.18-1.47.43-2.51,1.2-3.09,2.29-.01.03-.03.05-.04.07-.02.05-.05.1-.07.15.14-.05.28-.09.43-.14.04-.07.07-.13.12-.2.49-.76,1.33-1.46,2.75-1.87,1.29-.38,2.3-.3,3.1,0,.16.06.31.13.46.21.16-.03.31-.06.47-.09-.09-.06-.18-.11-.27-.17ZM62.42,37.89l-1.78-1.9-.22-.23-9.99,2.92-.06.31-.52,2.82c.12-.04.23-.09.35-.13l.51-2.75,3.91-1.15,5.7-1.67h0s1.72,1.84,1.72,1.84l.41.44c.13-.02.26-.03.39-.04l-.44-.47ZM59.6,38.61s-.1-.05-.15-.08c-1.05-.53-2.29-.59-3.68-.18-1.47.43-2.51,1.2-3.09,2.29-.01.03-.03.05-.04.07-.02.05-.05.1-.07.15.14-.05.28-.09.43-.14.04-.07.07-.13.12-.2.49-.76,1.33-1.46,2.75-1.87,1.29-.38,2.3-.3,3.1,0,.16.06.31.13.46.21.16-.03.31-.06.47-.09-.09-.06-.18-.11-.27-.17ZM59.6,38.61s-.1-.05-.15-.08c-1.05-.53-2.29-.59-3.68-.18-1.47.43-2.51,1.2-3.09,2.29-.01.03-.03.05-.04.07-.02.05-.05.1-.07.15.14-.05.28-.09.43-.14.04-.07.07-.13.12-.2.49-.76,1.33-1.46,2.75-1.87,1.29-.38,2.3-.3,3.1,0,.16.06.31.13.46.21.16-.03.31-.06.47-.09-.09-.06-.18-.11-.27-.17ZM59.6,38.61s-.1-.05-.15-.08c-1.05-.53-2.29-.59-3.68-.18-1.47.43-2.51,1.2-3.09,2.29-.01.03-.03.05-.04.07-.02.05-.05.1-.07.15.14-.05.28-.09.43-.14.04-.07.07-.13.12-.2.49-.76,1.33-1.46,2.75-1.87,1.29-.38,2.3-.3,3.1,0,.16.06.31.13.46.21.16-.03.31-.06.47-.09-.09-.06-.18-.11-.27-.17ZM59.6,38.61s-.1-.05-.15-.08c-1.05-.53-2.29-.59-3.68-.18-1.47.43-2.51,1.2-3.09,2.29-.01.03-.03.05-.04.07-.02.05-.05.1-.07.15.14-.05.28-.09.43-.14.04-.07.07-.13.12-.2.49-.76,1.33-1.46,2.75-1.87,1.29-.38,2.3-.3,3.1,0,.16.06.31.13.46.21.16-.03.31-.06.47-.09-.09-.06-.18-.11-.27-.17Z"/>
                <path class="cls-1" d="M59.6,38.61s-.1-.05-.15-.08c-1.05-.53-2.29-.59-3.68-.18-1.47.43-2.51,1.2-3.09,2.29-.01.03-.03.05-.04.07-.02.05-.05.1-.07.15.14-.05.28-.09.43-.14.1-.03.19-.06.29-.09.07-.03.13-.05.2-.08.06-.08.12-.16.19-.24.53-.61,1.29-1.07,2.28-1.36.89-.26,1.7-.31,2.41-.15.18.04.35.09.52.16.17-.04.35-.07.52-.11.16-.03.31-.06.47-.09-.09-.06-.18-.11-.27-.17ZM62.79,37.82l-2.08-2.23h0s-.05-.06-.05-.06c-.08-.09-.21-.12-.32-.09l-.3.09-9.68,2.84h0c-.12.03-.2.13-.22.25v.08s-.01,0-.01,0l-.6,3.25c.12-.05.23-.09.35-.13.12-.04.23-.09.35-.13l.51-2.75,3.91-1.15,5.7-1.67h0s1.72,1.84,1.72,1.84l.41.44c.13-.02.26-.03.39-.04.14-.01.27-.03.4-.04l-.47-.5ZM59.6,38.61s-.1-.05-.15-.08c-1.05-.53-2.29-.59-3.68-.18-1.47.43-2.51,1.2-3.09,2.29-.01.03-.03.05-.04.07-.02.05-.05.1-.07.15.14-.05.28-.09.43-.14.04-.07.07-.13.12-.2.49-.76,1.33-1.46,2.75-1.87,1.29-.38,2.3-.3,3.1,0,.16.06.31.13.46.21.16-.03.31-.06.47-.09-.09-.06-.18-.11-.27-.17ZM59.6,38.61s-.1-.05-.15-.08c-1.05-.53-2.29-.59-3.68-.18-1.47.43-2.51,1.2-3.09,2.29-.01.03-.03.05-.04.07-.02.05-.05.1-.07.15.14-.05.28-.09.43-.14.04-.07.07-.13.12-.2.49-.76,1.33-1.46,2.75-1.87,1.29-.38,2.3-.3,3.1,0,.16.06.31.13.46.21.16-.03.31-.06.47-.09-.09-.06-.18-.11-.27-.17ZM59.6,38.61s-.1-.05-.15-.08c-1.05-.53-2.29-.59-3.68-.18-1.47.43-2.51,1.2-3.09,2.29-.01.03-.03.05-.04.07-.02.05-.05.1-.07.15.14-.05.28-.09.43-.14.04-.07.07-.13.12-.2.49-.76,1.33-1.46,2.75-1.87,1.29-.38,2.3-.3,3.1,0,.16.06.31.13.46.21.16-.03.31-.06.47-.09-.09-.06-.18-.11-.27-.17ZM59.6,38.61s-.1-.05-.15-.08c-1.05-.53-2.29-.59-3.68-.18-1.47.43-2.51,1.2-3.09,2.29-.01.03-.03.05-.04.07-.02.05-.05.1-.07.15.14-.05.28-.09.43-.14.04-.07.07-.13.12-.2.49-.76,1.33-1.46,2.75-1.87,1.29-.38,2.3-.3,3.1,0,.16.06.31.13.46.21.16-.03.31-.06.47-.09-.09-.06-.18-.11-.27-.17ZM59.6,38.61s-.1-.05-.15-.08c-1.05-.53-2.29-.59-3.68-.18-1.47.43-2.51,1.2-3.09,2.29-.01.03-.03.05-.04.07-.02.05-.05.1-.07.15.14-.05.28-.09.43-.14.04-.07.07-.13.12-.2.49-.76,1.33-1.46,2.75-1.87,1.29-.38,2.3-.3,3.1,0,.16.06.31.13.46.21.16-.03.31-.06.47-.09-.09-.06-.18-.11-.27-.17ZM59.6,38.61s-.1-.05-.15-.08c-1.05-.53-2.29-.59-3.68-.18-1.47.43-2.51,1.2-3.09,2.29-.01.03-.03.05-.04.07-.02.05-.05.1-.07.15.14-.05.28-.09.43-.14.04-.07.07-.13.12-.2.49-.76,1.33-1.46,2.75-1.87,1.29-.38,2.3-.3,3.1,0,.16.06.31.13.46.21.16-.03.31-.06.47-.09-.09-.06-.18-.11-.27-.17ZM59.6,38.61s-.1-.05-.15-.08c-1.05-.53-2.29-.59-3.68-.18-1.47.43-2.51,1.2-3.09,2.29-.01.03-.03.05-.04.07-.02.05-.05.1-.07.15.14-.05.28-.09.43-.14.04-.07.07-.13.12-.2.49-.76,1.33-1.46,2.75-1.87,1.29-.38,2.3-.3,3.1,0,.16.06.31.13.46.21.16-.03.31-.06.47-.09-.09-.06-.18-.11-.27-.17Z"/>
              </g>
              <path class="cls-1" d="M47.98,11.79c-.17.05-.35-.05-.4-.22l-1.49-5.1c-.05-.17.05-.35.22-.4s.35.05.4.22l1.49,5.1c.05.17-.05.35-.22.4Z"/>
            </g>
            <path class="cls-2" d="M81.35,35.93l-.63,2.28c.21.02.41.05.61.08l.19-.69c.11-.44.61-.68,1.13-.55.51.12.84.58.72,1.01l-.14.51c.16.03.33.05.49.08l.13-.47c.11-.43.62-.67,1.13-.54.5.12.83.58.73,1l-.1.36c.16.03.32.07.48.1l.1-.34c.1-.43.61-.68,1.12-.54.51.13.84.58.74,1.02l-.08.29c.16.04.32.08.47.12l.08-.3c.1-.44.61-.68,1.12-.55.51.14.84.58.74,1.01l-.09.33c.14.04.28.08.41.12l.51-1.85-9.87-2.49ZM82.34,31.94l-.7,2.78,9.88,2.49.7-2.78-9.88-2.49ZM82.12,34.58l.47-1.84c.04-.15.21-.24.39-.2.18.05.31.2.26.35l-.45,1.85-.66-.17ZM83.03,34.81l.47-1.85c.03-.14.21-.24.38-.18.19.03.31.2.26.35l-.45,1.85-.66-.17ZM83.93,35.04l.47-1.84c.03-.16.22-.24.4-.2.17.05.3.22.25.35l-.45,1.85-.66-.16ZM84.83,35.27l.47-1.84c.03-.15.22-.24.4-.19.17.05.29.2.26.35l-.47,1.85-.66-.17ZM85.74,35.5l.46-1.86c.04-.15.22-.23.41-.18.18.04.29.2.26.36l-.47,1.84-.65-.15ZM86.65,35.72l.46-1.85c.05-.15.22-.24.4-.2.18.05.29.22.26.35l-.47,1.84-.64-.15ZM87.56,35.95l.45-1.85c.05-.14.21-.23.4-.19.17.05.29.2.26.35l-.47,1.85-.64-.16ZM88.45,36.18l.46-1.85c.05-.15.22-.23.4-.19.19.04.3.21.26.36l-.46,1.84-.65-.15ZM89.36,36.41l.45-1.85c.05-.15.22-.23.4-.19.18.05.29.21.26.35l-.47,1.85-.64-.16ZM91.38,34.95l-.47,1.85-.64-.16.46-1.85c.04-.15.21-.25.39-.19.17.05.29.2.26.35ZM83.34,27.94l-.7,2.77,9.89,2.49.7-2.77-9.89-2.49ZM83.13,30.55l.47-1.84c.03-.16.22-.24.39-.2.19.05.3.22.26.36l-.45,1.85-.66-.16ZM84.04,30.77l.47-1.85c.04-.14.22-.23.4-.19.17.05.3.2.25.35l-.46,1.85-.66-.17ZM84.95,31.01l.45-1.85c.04-.16.22-.23.4-.19.18.03.3.2.26.35l-.47,1.84-.64-.15ZM85.85,31.24l.46-1.85c.03-.16.22-.24.41-.2.17.05.28.21.26.36l-.47,1.84-.65-.15ZM86.76,31.46l.45-1.85c.04-.14.22-.23.4-.19.18.05.3.2.26.36l-.47,1.84-.64-.17ZM87.67,31.69l.45-1.85c.05-.16.22-.23.4-.19.18.03.29.2.26.35l-.47,1.84-.64-.16ZM88.56,31.92l.45-1.85c.05-.16.22-.25.4-.2.19.05.3.22.26.36l-.47,1.85-.65-.16ZM89.47,32.14l.47-1.85c.03-.15.21-.24.38-.19.19.04.3.2.26.35l-.47,1.86-.64-.17ZM90.38,32.37l.46-1.85c.04-.16.21-.23.39-.19.18.03.29.2.26.35l-.47,1.84-.64-.15ZM92.39,30.91l-.45,1.85-.66-.18.47-1.82c.04-.16.21-.25.38-.21.18.05.3.2.26.36ZM84.34,23.95l-.69,2.76,9.88,2.49.7-2.78-9.89-2.47ZM84.15,26.51l.46-1.85c.04-.15.22-.23.4-.19.19.04.3.2.26.36l-.46,1.83-.66-.16ZM85.06,26.75l.45-1.85c.04-.16.22-.23.4-.2.18.05.3.22.26.36l-.47,1.85-.64-.15ZM85.96,26.96l.46-1.84c.03-.15.22-.24.4-.19.17.05.29.2.26.36l-.47,1.85-.65-.17ZM86.87,27.2l.45-1.85c.05-.15.22-.23.4-.19.19.04.3.2.26.36l-.46,1.83-.65-.16ZM87.77,27.41l.45-1.83c.05-.15.22-.24.4-.2.17.05.3.21.26.36l-.47,1.84-.64-.17ZM88.67,27.64l.46-1.84c.04-.14.22-.24.4-.19.18.04.29.2.26.36l-.47,1.84-.65-.17ZM89.58,27.88l.47-1.85c.03-.15.21-.23.38-.19.19.05.3.2.26.35l-.47,1.84-.64-.16ZM90.49,28.1l.46-1.83c.04-.15.21-.23.39-.2.18.05.29.21.26.36l-.45,1.85-.66-.17ZM91.38,28.32l.47-1.84c.04-.14.21-.24.38-.19.18.04.29.2.26.36l-.45,1.85-.66-.18ZM93.4,26.87l-.45,1.85-.66-.15.47-1.84c.03-.16.21-.24.38-.19.18.04.31.2.26.34ZM85.35,19.95l-.7,2.78,9.88,2.48.7-2.77-9.89-2.49ZM85.17,22.47l.46-1.85c.04-.14.22-.23.4-.19.18.06.3.21.26.36l-.47,1.84-.64-.17ZM86.07,22.7l.46-1.85c.05-.15.21-.23.4-.19.18.04.29.21.26.36l-.47,1.83-.64-.15ZM86.98,22.93l.45-1.84c.05-.15.22-.24.4-.2.18.06.3.21.26.36l-.46,1.85-.65-.16ZM87.88,23.15l.45-1.85c.05-.14.22-.23.4-.19.19.04.3.21.26.36l-.47,1.85-.64-.17ZM88.78,23.38l.46-1.84c.05-.15.22-.23.4-.19.18.04.29.2.26.34l-.47,1.85-.65-.16ZM89.69,23.61l.47-1.84c.03-.15.21-.24.38-.2.19.05.3.2.26.35l-.47,1.84-.64-.16ZM90.59,23.83l.47-1.84c.03-.14.2-.24.39-.19.18.04.3.21.26.36l-.45,1.85-.66-.18ZM91.49,24.06l.47-1.84c.04-.15.21-.24.39-.19.18.04.29.21.26.34l-.46,1.85-.66-.16ZM92.4,24.29l.47-1.84c.03-.15.21-.24.39-.2.18.05.3.2.26.35l-.45,1.85-.66-.17ZM94.42,22.84l-.45,1.83-.66-.16.47-1.84c.04-.15.22-.24.39-.19.18.04.3.21.26.36ZM89.21,12.08l-.8,3.19,6.34,1.59.8-3.19-6.34-1.59ZM90.69,13.93l-.28,1.14-1.09-.27.28-1.15c.08-.31.39-.51.7-.42.3.06.49.39.4.71ZM92.58,14.4l-.29,1.13-1.09-.27.29-1.15c.07-.31.38-.51.68-.43.3.07.49.38.41.71ZM94.47,14.87l-.29,1.14-1.1-.27.3-1.16c.07-.3.38-.5.68-.42.31.07.49.38.41.7ZM82.26,30.93l-.15.65,10.5,2.64.15-.65-10.5-2.64ZM83.27,26.92l-.17.65,10.51,2.64.16-.64-10.51-2.65ZM84.27,22.93l-.16.65,10.5,2.62.17-.63-10.51-2.64ZM85.27,18.93l-.16.65,10.51,2.64.16-.64-10.51-2.65ZM86.27,14.94l-.15.63,10.51,2.64.15-.64-10.51-2.63ZM88.8,11.14l-.14.54,7.56,1.9.14-.55-7.56-1.88ZM81.26,34.93l-.16.63,10.51,2.64.15-.63-10.51-2.64ZM86.35,15.94l-.7,2.78,9.89,2.48.69-2.78-9.88-2.49ZM86.18,18.43l.45-1.84c.04-.15.21-.24.4-.2.18.05.29.2.26.35l-.47,1.85-.64-.16ZM87.08,18.67l.45-1.85c.05-.14.23-.25.4-.19.19.04.3.2.26.35l-.46,1.85-.65-.16ZM87.99,18.9l.46-1.85c.04-.15.22-.24.4-.18.19.03.3.2.26.34l-.47,1.85-.64-.16ZM88.9,19.12l.46-1.84c.04-.15.21-.23.39-.19.18.05.29.2.26.35l-.47,1.85-.64-.17ZM89.79,19.35l.47-1.84c.04-.14.21-.24.38-.19.19.03.3.2.26.35l-.46,1.85-.65-.17ZM90.7,19.58l.47-1.85c.04-.15.21-.24.39-.19.18.05.3.22.26.36l-.45,1.85-.66-.16ZM91.6,19.8l.47-1.84c.04-.15.21-.23.39-.19.18.05.31.2.26.35l-.47,1.85-.66-.17ZM92.51,20.03l.47-1.85c.03-.16.21-.24.38-.19.19.03.3.2.26.35l-.45,1.84-.66-.16ZM93.41,20.26l.47-1.84c.04-.16.22-.24.39-.21.18.05.3.22.26.36l-.46,1.85-.66-.16ZM95.42,18.8l-.45,1.85-.66-.16.47-1.85c.04-.14.22-.23.4-.19.19.05.3.2.24.35Z"/>
          </g>
          <rect class="cls-1" x="66.2" y="32.29" width="10.05" height=".62"/>
          <rect class="cls-1" x="66.57" y="33.19" width="9.36" height=".41"/>
          <g>
            <g>
              <g>
                <path class="cls-1" d="M69.19,9.77s0,0,0,0t0,0s-.02,0-.02,0h-.4s-.3,0-.3,0h-.3s-.03,0-.03,0c-.11,0-.2-.09-.2-.2,0-.1.07-.18.17-.2,0,0,.02,0,.03,0h.27s.3,0,.3,0h.31s.15,0,.15,0c.11,0,.2.09.2.2,0,.1-.07.18-.17.2Z"/>
                <path class="cls-1" d="M69.21,9.77c-.11,0-.2-.09-.2-.2v-.34c0-.89.75-1.61,1.66-1.61h1.25c.92,0,1.66.72,1.66,1.61v.3c0,.11-.09.2-.2.2s-.2-.09-.2-.2v-.3c0-.67-.57-1.22-1.27-1.22h-1.25c-.7,0-1.27.55-1.27,1.22v.34c0,.11-.09.2-.2.2Z"/>
                <path class="cls-1" d="M71.3,8.02c-.11,0-.2-.09-.2-.2v-1c0-.11.09-.2.2-.2s.2.09.2.2v1c0,.11-.09.2-.2.2Z"/>
                <path class="cls-1" d="M72.2,8.03s-.03,0-.04,0c-.11-.02-.17-.13-.15-.24l.22-.97c.02-.11.13-.17.24-.15.11.02.17.13.15.24l-.22.97c-.02.09-.1.15-.19.15Z"/>
                <path class="cls-1" d="M72.92,8.34s-.09-.01-.12-.04c-.09-.07-.1-.19-.03-.28l.62-.79c.07-.09.19-.1.28-.03.09.07.1.19.03.28l-.62.79s-.1.08-.16.08Z"/>
                <path class="cls-1" d="M73.3,8.95c-.08,0-.15-.05-.18-.12-.04-.1,0-.22.11-.26l.95-.39c.1-.04.22,0,.26.11.04.1,0,.22-.11.26l-.95.39s-.05.01-.07.01Z"/>
                <path class="cls-1" d="M73.38,9.73c-.11,0-.2-.09-.2-.2,0-.11.09-.2.2-.2l1.03-.02c.11,0,.2.09.2.2,0,.11-.09.2-.2.2l-1.03.02h0Z"/>
                <path class="cls-1" d="M70.4,7.98c-.09,0-.17-.06-.19-.15l-.22-.97c-.02-.11.04-.21.15-.24.11-.02.21.04.24.15l.22.97c.02.11-.04.21-.15.24-.01,0-.03,0-.04,0Z"/>
                <path class="cls-1" d="M69.68,8.37c-.06,0-.12-.03-.16-.08l-.62-.79c-.07-.09-.05-.21.03-.28.09-.07.21-.05.28.03l.62.79c.07.09.05.21-.03.28-.04.03-.08.04-.12.04Z"/>
                <path class="cls-1" d="M69.22,8.98s-.05,0-.07-.01l-.95-.39c-.1-.04-.15-.16-.11-.26.04-.1.16-.15.26-.11l.95.39c.1.04.15.16.11.26-.03.08-.11.12-.18.12Z"/>
              </g>
              <g>
                <path class="cls-1" d="M68.3,28.3v.54c0,.13-.09.25-.21.28-.01,0-.03,0-.04,0,0,0-.01,0-.02,0-.02,0-.04,0-.06,0-.2.01-.35.17-.35.36v1.98c0,.17-.13.3-.3.3h-.66c-.2,0-.36.16-.36.36s.16.36.36.36c.16,0,.3.13.3.3v5.15c-.1,0-.2.02-.3.03v-5.18h0c-.36,0-.66-.29-.66-.66s.3-.66.66-.66h.66v-1.98c0-.25.14-.46.33-.57.1-.05.21-.08.32-.08h.01v-8.41c-.12,0-.25-.04-.36-.11-.07-.04-.12-.1-.16-.16h0c-.16-.22-.17-.52-.01-.75.03-.04.22-.33.54-.76v-1.91c0-.45-.2-.9-.43-1.43-.45-1.04-1.02-2.32-.24-4.15l-.66-4.58h0s0-.04,0-.05l.3-.02v.02s0,.02,0,.02l.65,4.57c0,.05,0,.11-.02.16-.73,1.71-.22,2.88.24,3.91.24.56.45,1.04.45,1.55v1.92c0,.06-.02.12-.05.17-.33.46-.52.74-.53.75-.06.09-.07.2-.05.29.02.08.07.16.15.21.06.04.13.06.2.06.14,0,.26.11.29.24,0,.02,0,.04,0,.05v7.87Z"/>
                <path class="cls-1" d="M75.17,23.42s0,.02-.01.03c0,0,0,0,0,0l-.26-.14.28.1Z"/>
                <path class="cls-1" d="M76.85,16.55l-1.86,3.13c.18,1.9.23,3.31.23,3.45v.02s0,.03,0,.05c0,0,0,.02,0,.03,0,.01,0,.02,0,.03,0,.01,0,.02,0,.04,0,0,0,.02,0,.02,0,.01,0,.03-.01.04,0,0,0,.02,0,.02,0,.01,0,.02-.01.03l-.27-.12v-.02s.01-.02.01-.02v-.02s0-.02,0-.02c0,0,0-.02,0-.02,0-.01,0-.02,0-.03v-.02c0-.14-.06-1.54-.23-3.43,0-.06,0-.13.04-.18l1.86-3.13c.1-.16.05-.37-.1-.48l-1.71-1.2c-.08-.06-.18-.08-.28-.06-.04,0-.07.02-.1.04-.08.05-.18.05-.27.01-.09-.04-.15-.12-.17-.21-.07-.35-.14-.68-.21-.99-.06-.27-.28-.46-.68-.6-.07-.02-.12-.07-.16-.13-.24-.41-.44-.98-.54-1.55,0-.02,0-.04,0-.05v-1.32c0-.48-.39-.87-.87-.87h-.49c-.48,0-.87.39-.87.87v1.66s0,.02,0,.03v.02s0,.05,0,.08c-.06.26-.13.51-.22.76-.05.15-.21.23-.36.19-.66-.19-1.04-.69-1.21-1.58l-.18-1.25h-.03c-.11,0-.2-.09-.2-.2,0-.1.07-.18.17-.2l-.42-2.92s0-.03,0-.04v-1.27c0-.16.13-.3.3-.3.2,0,.36-.16.36-.36,0-.18-.13-.33-.3-.35-.13-.02-.23-.13-.24-.25-.02-.13.05-.25.17-.31.28-.13.42-.28.43-.37,0-.04-.02-.09-.08-.15-.89-.89-1-1.77-1.01-2.28-.37.43-.84,1.52-.84,2.07,0,.28.13.54.37.71.08.06.13.16.12.25,0,0,0,.02,0,.03,0,.16-.14.29-.3.29h-.03c-.2,0-.36.16-.36.36,0,.2.16.36.36.36h.03c.16,0,.3.13.3.3v1.32s-.3.05-.3.05c0-.01,0-.02,0-.03v-1.33s-.03,0-.03,0c-.36,0-.66-.3-.66-.66,0-.37.3-.66.66-.66h.03s0-.02,0-.04c-.29-.21-.49-.56-.49-.95,0-.65.75-2.55,1.4-2.55.19,0-.35,1.24.96,2.55.38.39.03.78-.44,1,.31.05.54.32.54.65,0,.36-.29.66-.66.66v1.27s.25,1.78.25,1.78h0s.06.42.06.42h0s.11.75.11.75l.06.4.17,1.2c.14.76.44,1.18.99,1.34.09-.25.15-.49.21-.72,0-.02,0-.05,0-.07v-1.66c0-.65.53-1.17,1.17-1.17h.49c.65,0,1.17.52,1.17,1.17v1.32c.1.53.28,1.06.51,1.45.37.12.76.36.87.81.08.33.15.66.22,1,.06-.03.12-.06.19-.07.18-.04.36,0,.51.11l1.71,1.2c.28.2.36.58.19.87Z"/>
                <path class="cls-1" d="M76.54,32.14c0,.36-.3.66-.66.66h0s0,4.99,0,4.99c-.1,0-.2,0-.3-.01v-4.98c0-.16.13-.3.3-.3.2,0,.37-.16.37-.36s-.16-.36-.36-.36h-.66c-.16,0-.3-.13-.3-.3v-1.98c0-.2-.16-.36-.36-.36-.16,0-.3-.13-.3-.3v-4.86c0-.09.05-.18.12-.24l.42-.31h.01s.06-.09.06-.09l.27.12s0,.01,0,.02c0,.01-.01.02-.02.03,0,0,0,.02-.01.02,0,0-.02.02-.02.03,0,0,0,.01-.02.02,0,.01-.02.02-.02.03,0,0-.01.01-.02.02,0,0-.02.02-.02.02-.01,0-.03.02-.04.03,0,0,0,0-.01,0h0s0,0,0,0l-.39.28v4.86c.36,0,.66.29.66.66v1.98h.66c.36,0,.66.3.66.66Z"/>
                <path class="cls-1" d="M68.16,9.77h-.03c-.11,0-.2-.09-.2-.2,0-.1.07-.18.17-.2l.06.39Z"/>
                <path class="cls-1" d="M77.1,16.7l-1.81,3.05c.17,1.86.22,3.22.22,3.38v.03s0,.04,0,.06c0,.01,0,.03,0,.04v.05s-.01.03-.02.05c0,.02,0,.03,0,.04,0,.02,0,.03-.02.05v.03s-.02.03-.03.04l-.02.05s0,.02-.02.03c-.01.02-.02.04-.03.05,0,0-.01.02-.02.03-.01.02-.02.04-.04.05,0,0-.02.02-.02.03-.01.02-.02.03-.04.04,0,0-.02.02-.03.03l-.04.04s-.04.03-.05.04c0,0-.02.02-.02.02l-.27.2v4.46c.38.13.66.48.66.91v1.69h.36c.53,0,.95.43.95.95,0,.42-.28.79-.66.91v4.75c-.1,0-.2-.01-.3-.02-.1,0-.2,0-.3-.01v-4.98c0-.16.13-.3.3-.3.2,0,.37-.16.37-.36s-.16-.36-.36-.36h-.66c-.16,0-.3-.13-.3-.3v-1.98c0-.2-.16-.36-.36-.36-.16,0-.3-.13-.3-.3v-4.86c0-.09.05-.18.12-.24l.42-.31h.01s.06-.09.06-.09l.27.12-.26-.14.28.1-.27-.13v-.02s.01-.02.01-.02v-.02s0-.02,0-.02c0,0,0-.02,0-.02,0-.01,0-.02,0-.03v-.02c0-.14-.05-1.54-.23-3.43,0-.06,0-.13.04-.18l1.86-3.13c.1-.16.05-.37-.1-.48l-1.71-1.2c-.08-.06-.18-.08-.28-.06-.04,0-.07.02-.1.04-.08.04-.18.05-.27,0-.09-.04-.15-.12-.17-.21-.07-.35-.14-.68-.21-.99-.06-.27-.28-.46-.68-.6-.07-.02-.13-.07-.16-.13-.24-.41-.44-.98-.54-1.55,0-.02,0-.04,0-.05v-1.32c0-.48-.39-.87-.87-.87h-.49c-.48,0-.87.39-.87.87v1.66s0,.02,0,.03v.02s0,.05,0,.08c-.05.26-.13.5-.22.76-.05.15-.21.23-.36.19-.66-.19-1.04-.69-1.21-1.58l-.18-1.25h-.03c-.11,0-.2-.09-.2-.2,0-.1.07-.18.17-.2l-.42-2.92s0-.03,0-.04v-1.27c0-.16.13-.3.3-.3.2,0,.36-.16.36-.36,0-.18-.13-.33-.3-.35-.13-.02-.23-.13-.24-.25-.02-.13.05-.25.17-.31.28-.13.42-.28.43-.37,0-.04-.02-.09-.08-.15-.89-.89-1-1.77-1.01-2.28-.37.43-.84,1.52-.84,2.07,0,.28.13.54.37.71.08.06.13.15.12.25,0,0,0,.02,0,.03,0,.16-.14.29-.3.29h-.03c-.2,0-.36.16-.36.36s.16.36.36.36h.03c.16,0,.3.13.3.3v1.32l-.3.05.3-.02v.02s0,.02,0,.02l.65,4.57c0,.05,0,.11-.02.16-.73,1.71-.22,2.88.24,3.91.24.56.45,1.04.45,1.55v1.92c0,.06-.02.12-.05.17-.33.46-.52.74-.53.75-.06.09-.07.2-.05.29.02.08.07.16.15.21.06.04.13.06.2.06.14,0,.26.11.29.24,0,.02,0,.04,0,.05v7.87s0,.54,0,.54c0,.13-.09.25-.21.28,0,0-.01,0-.02,0s-.01,0-.02,0c0,0-.01,0-.02,0-.02,0-.04,0-.06,0-.2.01-.35.17-.35.36v1.98c0,.17-.13.3-.3.3h-.66c-.2,0-.36.16-.36.36s.16.36.36.36c.16,0,.3.13.3.3v5.15c-.1,0-.2.02-.3.03-.1,0-.2.02-.3.03v-4.95c-.39-.12-.66-.49-.66-.91,0-.53.43-.95.95-.95h.36v-1.69c0-.43.28-.79.67-.91,0,0,0,0,0,0v-7.91c-.08-.03-.16-.06-.23-.11-.44-.3-.55-.89-.26-1.33,0,0,.19-.27.49-.69v-1.82c0-.39-.19-.81-.41-1.31-.44-1.02-1.05-2.4-.27-4.31l-.64-4.5s0-.02,0-.03,0-.02,0-.04c0-.02,0-.03,0-.05v-1.07c-.4-.12-.69-.48-.69-.92,0-.34.18-.65.46-.82-.16-.24-.26-.53-.26-.83,0-.7.76-2.85,1.7-2.85.09,0,.17.04.24.1.11.12.11.27.1.46-.01.4-.04,1.21.83,2.08.25.25.27.5.24.67-.04.21-.17.39-.32.52.17.17.27.41.27.66,0,.42-.27.78-.66.91v1l.27,1.9.06.45h0s.09.62.09.62l.06.4.16,1.15c.11.58.3.85.52.98.03-.12.06-.23.09-.34,0-.02,0-.03,0-.05v-1.66c0-.81.66-1.47,1.47-1.47h.49c.81,0,1.47.66,1.47,1.47v1.3c.09.45.24.9.42,1.23.66.26.88.68.95.99.05.22.1.46.15.7.23-.02.45.04.64.17l1.71,1.2c.41.29.52.84.27,1.27Z"/>
              </g>
            </g>
            <path class="cls-1" d="M67.48,20.21h0c-.02-.17.08-.33.25-.38.6-.18,2-.8,3.07-2.77.09-.17.29-.23.46-.15h0c.18.09.25.31.15.49-1.18,2.17-2.76,2.88-3.49,3.1-.21.06-.42-.07-.45-.29Z"/>
            <path class="cls-1" d="M67.64,28.83h0c-.02-.17.08-.33.25-.38.6-.18,2-.8,3.07-2.77.09-.17.29-.23.46-.15h0c.18.09.25.31.15.49-1.18,2.17-2.76,2.88-3.49,3.1-.21.06-.42-.07-.45-.29Z"/>
          </g>
        </g>
      </g>
    </g>
  </g>
</svg>